<svg width="30" height="30" viewBox="0 0 167 167" fill="none" xmlns="http://www.w3.org/2000/svg">
<g clip-path="url(#clip0_3_6)">
<path fill-rule="evenodd" clip-rule="evenodd" d="M0 0H167V167H0V0Z" fill="white"/>
<path fill-rule="evenodd" clip-rule="evenodd" d="M7.35033 153.955H6.87295C6.87295 153.717 6.75339 153.358 6.75339 153.238C6.75339 153.119 6.75339 152.881 6.39471 152.881H5.67735V153.955H5.31866V151.446H6.39471C6.87295 151.446 7.23076 151.566 7.23076 152.043C7.23076 152.401 7.1112 152.522 6.99251 152.64C7.11207 152.76 7.23076 152.88 7.23076 153.119V153.596C7.23076 153.717 7.23077 153.717 7.35033 153.717V153.955ZM6.87295 152.163C6.87295 151.805 6.63383 151.805 6.51427 151.805H5.67735V152.522H6.39471C6.63383 152.522 6.87295 152.401 6.87295 152.163V152.163ZM8.90461 152.641C8.90461 151.208 7.70987 150.011 6.15559 150.011C4.72173 150.011 3.52612 151.208 3.52612 152.641C3.52612 154.194 4.72173 155.39 6.15559 155.39C7.70901 155.39 8.90461 154.194 8.90461 152.641ZM8.54593 152.641C8.54593 153.956 7.47075 154.911 6.15559 154.911C4.84042 154.911 3.8848 153.955 3.8848 152.641C3.8848 151.446 4.84129 150.37 6.15559 150.37C7.46989 150.37 8.54593 151.446 8.54593 152.641ZM155.791 104.356C155.791 107.942 153.52 109.614 149.456 109.614H141.689V106.028H149.456C150.173 106.028 150.771 105.909 151.011 105.671C151.249 105.431 151.488 105.072 151.488 104.595C151.488 104.116 151.25 103.638 151.011 103.4C150.771 103.16 150.294 103.041 149.576 103.041C145.872 102.921 141.21 103.16 141.21 97.9018C141.21 95.5106 142.764 92.8812 146.947 92.8812H154.954V96.4671H147.544C146.828 96.4671 146.349 96.4671 145.99 96.7054C145.632 97.064 145.393 97.4227 145.393 98.0205C145.393 98.6183 145.752 98.977 146.229 99.217C146.708 99.3357 147.187 99.4552 147.784 99.4552H149.935C152.206 99.4552 153.64 99.9326 154.597 100.77C155.312 101.606 155.791 102.683 155.791 104.356V104.356ZM138.939 100.77C137.982 99.9326 136.548 99.4552 134.277 99.4552H132.126C131.529 99.4552 131.05 99.3348 130.573 99.217C130.094 98.977 129.737 98.6183 129.737 98.0205C129.737 97.4227 129.856 97.064 130.334 96.7054C130.693 96.4671 131.17 96.4671 131.887 96.4671H139.297V92.8812H131.29C126.987 92.8812 125.552 95.5106 125.552 97.9018C125.552 103.159 130.214 102.921 133.92 103.041C134.635 103.041 135.115 103.16 135.353 103.4C135.591 103.638 135.832 104.116 135.832 104.595C135.832 105.072 135.592 105.431 135.353 105.671C134.994 105.909 134.517 106.028 133.799 106.028H126.031V109.614H133.799C137.862 109.614 140.133 107.941 140.133 104.356C140.133 102.683 139.656 101.606 138.939 100.77V100.77ZM123.64 106.149H114.2V102.802H123.402V99.457H114.2V96.3484H123.64V92.8829H110.256V109.614H123.64V106.149ZM105.952 93.7198C104.637 93.0024 103.084 92.882 101.052 92.882H91.8501V109.614H95.9126V103.519H100.216C101.649 103.519 102.487 103.639 103.084 104.236C103.802 105.072 103.802 106.507 103.802 107.583V109.614H107.745V106.386C107.745 104.833 107.626 104.116 107.148 103.279C106.789 102.8 106.073 102.203 105.117 101.845C106.191 101.488 107.986 100.053 107.986 97.4227C107.985 95.5115 107.267 94.4354 105.952 93.7198V93.7198ZM83.2444 92.882H70.4557L65.3164 98.3801L60.4161 92.882H44.2815V109.614H60.1779L65.3172 104.116L70.2175 109.614H77.9863V103.998H83.0061C86.4716 103.998 89.9389 103.041 89.9389 98.3801C89.938 93.8385 86.3521 92.882 83.2444 92.882ZM102.725 99.8148C102.128 100.053 101.53 100.053 100.813 100.053L95.9126 100.173V96.3475H100.813C101.53 96.3475 102.248 96.3475 102.725 96.7062C103.204 96.9462 103.561 97.4236 103.561 98.1409C103.561 98.8583 103.204 99.4561 102.725 99.8148V99.8148ZM83.2444 100.651H77.9854V96.3475H83.2444C84.6791 96.3475 85.6347 96.9462 85.6347 98.3801C85.6347 99.8148 84.6782 100.651 83.2444 100.651ZM67.8263 101.248L74.0408 94.6754V108.181L67.8263 101.248ZM58.1453 106.149H48.2253V102.802H57.0693V99.457H48.2253V96.3484H58.2649L62.6869 101.249L58.1453 106.149V106.149ZM144.675 80.8107H138.939L131.409 68.2612V80.8107H123.283L121.728 77.1052H113.362L111.809 80.8107H107.147C105.235 80.8107 102.725 80.3325 101.292 78.8978C99.9768 77.4639 99.2594 75.5518 99.2594 72.5637C99.2594 70.0538 99.6181 67.783 101.41 65.9904C102.605 64.6753 104.757 64.0783 107.505 64.0783H111.329V67.6643H107.505C106.072 67.6643 105.234 67.9034 104.398 68.6208C103.681 69.3381 103.322 70.6524 103.322 72.445C103.322 74.2375 103.681 75.5527 104.398 76.3896C104.995 76.9865 106.072 77.2257 107.146 77.2257H108.939L114.676 64.0792H120.652L127.345 79.8551V64.0783H133.56L140.612 75.6714V64.0783H144.674V80.8107H144.675V80.8107ZM97.2277 64.0783H93.1653V80.8107H97.2277V64.0783V64.0783ZM88.7416 64.7957C87.4264 64.0783 85.9934 64.0783 83.9617 64.0783H74.7582V80.8107H78.7019V74.7149H83.0044C84.4391 74.7149 85.3956 74.8345 85.9925 75.4323C86.7099 76.2692 86.5895 77.7039 86.5895 78.6595V80.8107H90.6519V77.4639C90.6519 76.0301 90.5332 75.3127 89.9363 74.4758C89.5776 73.9975 88.8602 73.3997 88.0242 73.0419C89.0985 72.5637 90.8928 71.2494 90.8928 68.6199C90.8936 66.7078 90.0559 65.6318 88.7416 64.7957ZM71.8896 77.3452H62.5673V73.9984H71.77V70.5329H62.5673V67.5447H71.8896V64.0792H58.504V80.8116H71.8896V77.3452ZM55.5159 64.0783H48.9426L44.0424 75.4323L38.7835 64.0783H32.3298V79.8543L25.5175 64.0783H19.542L12.371 80.8107H16.6734L18.2269 77.1052H26.5926L28.1461 80.8107H36.2736V67.6643L42.1294 80.8107H45.5949L51.4517 67.6643V80.8107H55.515V64.0783H55.5159ZM120.295 73.5202L117.545 66.9469L114.797 73.5202H120.295ZM85.6347 70.8916C85.0378 71.2502 84.44 71.2502 83.6031 71.2502H78.7019V67.5456H83.6022C84.3196 67.5456 85.1547 67.5456 85.6339 67.7847C86.1112 68.1434 86.3512 68.6216 86.3512 69.3381C86.3512 70.0546 86.1121 70.6516 85.6347 70.8916V70.8916ZM19.6607 73.5202L22.4097 66.9469L25.1588 73.5202H19.6607V73.5202ZM154.835 11.6104H12.2506V71.8472L17.1508 60.7324H27.5482L28.983 63.4814V60.7324H41.1738L43.9228 66.7078L46.5523 60.7324H85.3956C87.1873 60.7324 88.7407 61.0911 89.9372 62.0467V60.7324H100.574V62.0467C102.365 61.0902 104.636 60.7324 107.266 60.7324H122.684L124.118 63.4814V60.7324H135.472L137.146 63.4814V60.7324H148.26V84.1576H137.027L134.876 80.5725V84.1576H120.892L119.339 80.3334H115.871L114.318 84.1576H107.028C104.16 84.1576 102.008 83.4402 100.575 82.7237V84.1576H83.2444V78.7791C83.2444 78.0617 83.1248 77.9422 82.6466 77.9422H82.0496V84.1567H48.584V81.1686L47.3892 84.1567H40.3378L39.143 81.2881V84.1567H25.637L24.2032 80.3325H20.7368L19.1833 84.1567H12.2506V154.792H154.835V111.884C153.282 112.602 151.13 112.96 148.978 112.96H138.58V111.526C137.385 112.483 135.233 112.96 133.202 112.96H100.454V107.583C100.454 106.865 100.335 106.865 99.7368 106.865H99.1399V112.96H88.3829V106.626C86.5912 107.462 84.5587 107.462 82.7661 107.462H81.5705V112.96H68.4241L65.3172 109.374L61.8517 112.96H40.6956V89.5361H62.2087L65.3164 93.1203L68.6632 89.5361H83.1248C84.7969 89.5361 87.5468 89.7743 88.7416 90.9691V89.5361H101.649C102.964 89.5361 105.475 89.7743 107.147 90.9691V89.5361H126.628V90.9699C127.704 90.0134 129.737 89.5369 131.529 89.5369H142.404V90.9699C143.601 90.1339 145.273 89.5369 147.425 89.5369H154.835V11.6104V11.6104Z" fill="#0077A6"/>
</g>
<defs>
<clipPath id="clip0_3_6">
<rect width="167" height="167" fill="white"/>
</clipPath>
</defs>
</svg>


