<svg width="62" height="41" viewBox="0 0 62 41" fill="none" xmlns="http://www.w3.org/2000/svg">
<path d="M42.3549 40.1694C53.1232 40.2223 61.9533 31.3913 61.8779 20.6464C61.9524 9.60787 53.1232 0.777724 42.3549 0.78119H20.7777C9.88039 0.778591 1.05024 9.60787 0.911621 20.6464C1.05024 31.3913 9.88039 40.2214 20.7769 40.1694H42.3549V40.1694Z" fill="#2D4F9E"/>
<path d="M2.28223 20.6464C2.38966 10.3477 10.6194 2.11713 20.7777 2.15178C30.9248 2.11713 39.1554 10.3477 39.2723 20.6473C39.1554 30.6531 30.9248 38.8837 20.7777 38.7997C10.6194 38.8837 2.38966 30.6522 2.28223 20.6464V20.6464Z" fill="white"/>
<path d="M16.6667 9.68671C12.4102 11.6075 9.21674 15.7141 9.13184 20.6464C9.21674 25.3933 12.2577 29.5745 16.6667 31.2639V9.68671ZM24.887 31.2648C29.2856 29.5753 32.3257 25.3933 32.4219 20.6473C32.3257 15.6084 29.2847 11.4264 24.887 9.68757V31.2648Z" fill="#2D4F9E"/>
</svg>
