<svg width="60" height="40" viewBox="0 0 167 167" fill="transparent" xmlns="http://www.w3.org/2000/svg">
<g clip-path="url(#clip0_1_50)">
<path d="M0.020752 0H166.979V167H0.020752V0Z" fill="transparent"/>
<path d="M34.4208 51.1567C36.0276 50.0229 37.7415 49.4183 39.5197 49.4183C47.3038 49.4183 53.8025 61.119 55.2879 76.6746L66.3213 71.9127C63.7933 45.4878 52.7527 25.5935 39.5197 25.5935C36.4846 25.5935 33.5781 26.6366 30.8501 28.5716L34.4208 51.1567Z" fill="#FFCB05"/>
<path d="M21.4022 126.833L28.8649 108.98C25.5371 102.737 23.4375 93.6209 23.4375 83.4622C23.4375 73.3185 25.5371 64.2028 28.8649 57.9745L21.4022 40.106C15.7462 50.7182 12.1755 66.2134 12.1755 83.4622C12.1755 100.726 15.7462 116.221 21.4022 126.833" fill="#00A4E0"/>
<path d="M55.2879 90.2952C53.7953 105.836 47.3038 117.521 39.5269 117.521C37.7415 117.521 36.0205 116.917 34.4208 115.768L30.8501 138.383C33.5781 140.303 36.4918 141.346 39.5269 141.346C52.7456 141.346 63.779 121.482 66.3213 95.0873L55.2879 90.2952Z" fill="#EF4123"/>
<path d="M75.9693 109.721C75.6051 108.481 75.1195 106.501 74.8196 105.034C73.0699 96.4479 72.9914 87.5589 74.4625 79.0328C76.0836 69.6753 79.183 62.5248 83.1893 58.8664C88.2239 54.2859 93.7871 55.1778 98.6147 61.2399C101.678 64.9587 103.849 70.7032 105.499 78.8363C105.706 79.8794 105.892 80.9829 106.077 81.9353L75.9693 109.721ZM86.0244 72.6685C82.4466 75.9187 80.6041 83.0238 80.9897 91.3383L96.1295 77.5362C93.5229 71.0661 90.1378 68.9194 86.0244 72.6685V72.6685ZM98.0148 102.691C98.0076 102.691 98.0076 102.706 98.0076 102.706L97.6934 102.253C96.7865 105.352 95.3796 107.876 93.6014 109.509C90.2164 112.623 87.0813 111.822 84.8247 107.635L84.6175 108.3C84.6175 108.3 84.6176 108.285 84.6104 108.285L80.7683 120.454C81.7253 121.86 82.7465 123.039 83.8177 123.991C88.0597 127.725 92.4017 127.544 96.6793 123.614C99.7716 120.771 102.2 116.448 103.856 110.96L98.0148 102.691ZM116.597 40.9677V108.602L121.567 112.865L118.746 126.803L113.262 121.966C112.033 120.832 111.191 119.109 110.562 117.158C109.955 115.178 109.505 112.442 109.505 108.784V40.9677H116.597ZM129.465 91.3836C129.465 85.6239 130.672 80.4538 132.572 76.9467L127.473 64.9133C124.017 71.3835 121.838 80.8318 121.838 91.3534C121.831 101.89 124.009 111.353 127.459 117.824L132.55 105.79C130.658 102.268 129.465 97.1281 129.465 91.3836V91.3836ZM138.521 110.567C137.521 110.567 136.55 110.205 135.65 109.57L133.215 124.883C134.879 126.063 136.657 126.713 138.514 126.713C146.583 126.728 153.318 114.604 154.882 98.5038L147.397 95.2687C146.548 104.022 142.898 110.582 138.521 110.567V110.567ZM138.542 56.0546C136.692 56.0546 134.914 56.6896 133.25 57.8536L135.664 73.1825C136.571 72.5475 137.535 72.1998 138.535 72.1998C142.92 72.215 146.576 78.8061 147.405 87.5741L154.889 84.3692C153.353 68.2391 146.619 56.0698 138.542 56.0546V56.0546Z" fill="white"/>
</g>
<defs>
<clipPath id="clip0_1_50">
<rect width="167" height="167" fill="white"/>
</clipPath>
</defs>
</svg>
