<svg width="40" height="40" viewBox="0 0 167 167" fill="none" xmlns="http://www.w3.org/2000/svg">
<g clip-path="url(#clip0_1_56)">
<path d="M45.8525 0H28.5482C20.9019 0.830692 14.6519 7.90701 12.8473 22.4995C11.9063 30.1098 11.3884 38.4679 10.6526 46.3568C6.91189 86.4696 3.59498 127.688 0.0168457 167H134.738C145.153 167 152.305 161.943 154.237 142.948C155.135 134.124 155.995 124.131 156.854 114.437C160.202 76.6391 163.553 38.8437 166.983 0H45.8525Z" fill="#822124"/>
<path d="M44.5017 59.3519C45.2254 58.2065 46.1576 52.9896 45.0927 50.8176C44.7554 50.13 44.1913 49.9304 43.4044 50.2362C42.6745 50.5193 42.2546 51.0895 41.9695 51.9819C41.5113 53.4166 41.0908 57.7448 41.8007 59.3527C42.4923 60.9177 44.0412 60.0802 44.5017 59.3519V59.3519ZM34.2036 50.8176C33.6851 58.5484 33.101 66.1285 32.5153 73.7049C28.7549 73.796 24.9156 74.1312 21.2886 73.5106C21.9736 66.0984 22.4649 58.2403 23.1457 50.8176H19.0939C17.6436 69.7254 16.324 88.9353 14.7046 107.455H18.8409C19.4895 97.9554 20.0965 88.3584 20.951 79.33C24.4777 79.1304 28.7044 78.7825 32.0935 79.5243C31.3947 88.9104 30.5504 97.9599 29.8988 107.455H34.0351C35.3645 88.2673 36.7644 69.2442 38.4248 50.8176H34.2036V50.8176ZM92.7009 67.1106C89.4826 64.1237 86.9523 69.1711 85.7793 73.8992C86.0454 71.7958 86.1549 69.3323 86.3705 67.1106H83.1628C82.3784 81.0848 81.2228 94.2041 80.1241 107.455H83.7541C84.2627 99.5897 84.4823 88.9873 85.6108 81.4636C86.5128 75.4514 88.8733 70.3294 92.2794 73.1235C92.3266 70.9056 92.6029 69.2126 92.7009 67.1106V67.1106ZM94.7264 97.9509C94.3918 95.9642 94.3056 92.6851 94.3892 90.1915C94.5766 84.5875 95.4655 77.7642 96.8372 74.6749C98.73 70.4115 102.467 71.1172 105.447 73.5114C105.539 71.2031 105.741 69.144 105.87 66.917C100.981 65.0824 96.3429 66.2242 93.8834 72.1542C91.4754 77.9593 89.8975 91.3016 91.0129 99.6966C92.3187 109.52 98.1744 110.054 102.915 106.292C103.125 104.317 103.236 102.116 103.422 100.085C100.831 103.177 95.8778 104.784 94.7264 97.9509V97.9509ZM135.498 67.3041C132.289 63.6184 129.619 69.803 128.576 73.5106C128.873 71.6082 128.89 69.0604 129.167 67.1098H125.959C125.094 80.9627 124.052 94.4075 122.836 107.454H126.55C126.574 102.107 127.031 98.1512 127.394 92.908C128.17 81.7106 129.31 69.4317 134.992 73.1228C135.18 71.2294 135.258 69.0815 135.498 67.3041ZM40.7876 67.1106C40.6893 67.143 40.6958 67.4171 40.703 67.692C39.9033 81.4357 38.8207 94.531 37.6644 107.454H41.294C42.1661 93.6174 43.1651 80.0741 44.4172 67.1098L40.7876 67.1106V67.1106ZM72.6952 66.3349C70.0724 66.7996 67.8555 68.5332 66.28 72.3478C64.3475 77.0254 62.7828 87.368 63.2413 96.7873C63.8955 110.225 71.1767 109.742 77.0003 106.485C77.0996 104.126 77.348 102.11 77.5067 99.8902C75.1078 101.953 70.9423 104.832 68.4743 101.249C66.6113 98.5413 66.6005 91.6887 67.2082 85.7315C71.1223 85.4453 75.1904 85.4995 79.11 85.7315C79.3585 81.5095 80.07 76.9064 79.4476 72.7364C78.6269 67.2311 75.6869 65.8047 72.6952 66.3349ZM76.156 81.0757H67.63C67.9001 76.5721 69.6634 71.6218 72.4418 71.3778C75.0567 71.1481 76.9288 73.5837 76.156 81.0757V81.0757ZM58.9362 67.1106C55.8641 64.4589 52.1201 67.6242 50.4968 70.6352C50.5027 70.7678 50.4581 70.7858 50.4102 70.7956C50.4378 70.7421 50.4679 70.6887 50.4968 70.6352C50.4965 70.6241 50.4959 70.613 50.4951 70.6021C50.5223 69.3075 50.7206 68.4052 50.7482 67.1106H47.6249C46.3234 87.0073 44.78 106.347 43.1514 125.493H46.781C47.3064 118.037 47.6531 110.17 48.385 103.187C49.2139 110.532 54.6265 109.129 56.9107 106.291C61.6228 100.435 65.2577 72.5662 58.9362 67.1106V67.1106ZM56.0664 99.8902C54.1244 104.616 49.3503 104.545 48.9756 96.5923C48.8127 93.1324 49.3735 89.5046 49.6515 85.9251C49.9317 82.3018 50.1339 78.8254 50.4106 75.645C52.3234 70.2782 57.9441 69.6298 58.5144 78.5543C59.009 86.3024 57.6743 95.9762 56.0664 99.8902V99.8902ZM149.003 49.654C148.692 55.9215 148.276 61.9487 147.737 67.692C138.834 61.2159 133.374 76.2685 133.472 94.8473C133.491 98.4404 133.76 102.003 134.738 104.545C136.424 108.924 141.249 109.973 143.686 106.29C144.157 105.578 144.639 104.281 144.952 103.382C145.187 102.705 145.559 100.931 145.627 101.442C145.499 103.41 145.307 105.234 145.29 107.454H148.582C149.217 86.5411 151.178 68.6793 152.634 49.6533H149.003V49.654H149.003ZM140.9 102.993C138.457 103.114 137.242 99.6386 137.186 93.8773C137.088 83.787 139.014 72.5767 142.926 71.5713C144.747 71.1036 146.065 72.0767 147.4 73.1235C146.175 84.458 146.617 102.711 140.9 102.993V102.993ZM109.583 67.1106C109.404 69.4151 109.13 71.5005 108.908 73.7049C111.05 72.4706 117.719 68.6869 118.362 75.2564C118.575 77.4389 118.207 79.7578 117.94 81.4636C111.909 80.1509 106.993 82.4532 105.7 92.3251C104.834 98.9375 105.797 105.444 107.642 107.261C111.194 110.758 115.515 106.752 117.011 101.249C116.856 103.153 116.709 105.079 116.759 107.455H119.882C119.915 100.582 120.35 95.0182 120.81 88.8336C121.202 83.567 121.94 78.3532 121.823 73.7049C121.554 63.0596 113.879 66.8252 109.583 67.1106V67.1106ZM115.492 99.6959C113.621 103.904 108.371 105.099 108.908 95.0408C109.354 86.6872 113.312 84.9121 117.602 86.1179C117.283 90.6878 116.917 96.4898 115.492 99.6959V99.6959Z" fill="white"/>
</g>
<defs>
<clipPath id="clip0_1_56">
<rect width="167" height="167" fill="white"/>
</clipPath>
</defs>
</svg>

