<svg width="50" height="50" viewBox="0 0 167 96" fill="none" xmlns="http://www.w3.org/2000/svg">
<path d="M78.8031 1.61634C69.5138 3.65846 62.8598 9.21756 58.5544 18.5773C56.4669 23.172 54.5359 31.0569 53.8836 37.6938C53.3878 42.9125 53.3617 53.6337 53.8575 58.9091C55.3709 75.8134 61.6595 87.8959 71.4969 92.831C72.4363 93.2848 73.7931 93.9655 74.4977 94.3626C77.0027 95.6106 85.2744 96.2346 90.8845 95.5539C93.7809 95.2135 96.6252 94.703 97.1992 94.4193C97.7733 94.1357 99.078 93.5685 100.07 93.2281C104.479 91.5831 105.654 91.0158 106.175 90.4486C106.697 89.8246 106.723 89.3708 106.723 81.0321C106.723 76.097 106.619 72.1829 106.463 71.956C106.332 71.7858 105.523 72.4098 104.662 73.3742C103.801 74.2818 102.94 75.0759 102.757 75.0759C102.575 75.0759 102.105 75.4163 101.74 75.8701C101.061 76.6075 99.5477 77.6853 96.8078 79.2736C94.9552 80.3514 89.8669 81.883 88.0925 81.883C86.292 81.883 82.7433 80.4648 80.8906 78.99C76.7156 75.6432 73.9236 69.4601 72.4884 60.4407C71.6795 55.1653 71.6273 42.5155 72.4102 37.3534C74.5759 23.1153 80.1078 15.5141 88.2491 15.5141C93.7288 15.5141 99.7825 18.634 105.34 24.42C105.81 24.8738 106.306 25.1007 106.436 24.8738C106.619 24.6469 106.723 21.3568 106.723 16.0814C106.723 7.91288 106.697 7.57253 106.149 6.77837C105.549 5.92748 104.714 5.53041 100.2 3.94209C98.9736 3.48829 97.695 2.97776 97.3297 2.80758C95.7902 2.01342 87.9359 0.765455 85.1178 0.822181C83.4478 0.878906 80.6036 1.21926 78.8031 1.61634V1.61634ZM30.7123 3.99881C30.608 4.16899 30.5297 16.4217 30.5297 31.1704C30.5297 59.7033 30.3992 63.277 29.225 69.0063C28.5205 72.4666 26.4069 76.9479 24.6325 78.7631C23.0408 80.4081 20.0661 81.883 18.3439 81.883C15.1083 81.883 8.24563 78.7064 5.29703 75.8701C4.85344 75.4163 4.35766 75.0759 4.175 75.0759C4.01844 75.0759 3.15734 74.2818 2.29625 73.3742C1.40906 72.4098 0.521876 71.7858 0.33922 71.8993C0.078282 72.1262 0 74.225 0 81.0321V89.8246L0.887186 90.6187C1.74828 91.4129 2.55719 91.7532 7.69766 93.5685C12.1075 95.1 13.6992 95.4404 18.5266 95.7807C23.667 96.1778 30.3209 95.4404 32.4867 94.3059C36.192 92.3772 37.862 91.2427 39.4016 89.7111C43.7853 85.2865 46.2903 79.3303 47.8298 69.8572C48.4039 66.3402 48.4039 65.8864 48.4039 35.0844V3.88536L39.6364 3.71518C34.8352 3.65846 30.8167 3.77191 30.7123 3.99881V3.99881ZM113.325 3.99881C113.064 4.22571 112.986 13.6422 112.986 48.4149C112.986 92.3772 112.986 92.6041 113.508 93.2281C113.899 93.6819 120.11 93.7954 134.853 93.6252C157.632 93.3983 157.11 93.455 160.45 89.938C162.147 88.1228 164.573 83.131 165.33 79.8976C167 72.8636 166.609 64.1846 164.338 57.9448C162.747 53.5202 159.824 50.1167 155.91 48.1313C155.206 47.7909 154.632 47.2237 154.684 46.9401C154.71 46.6564 155.284 46.1459 155.936 45.7488C161.259 42.7991 164.365 33.2692 163.634 22.0375C163.008 12.3942 159.668 6.32456 153.823 4.16899C152.44 3.65846 113.873 3.48828 113.325 3.99881ZM143.855 18.1235C145.629 20.1089 146.908 24.5902 146.908 28.8446C146.908 33.4961 145.264 38.5447 143.333 39.7926C142.263 40.4733 130.286 40.8704 129.999 40.1897C129.764 39.7359 129.608 20.3358 129.816 18.5206L129.947 17.2159H136.496C142.002 17.2159 143.15 17.386 143.855 18.1235ZM145.029 55.2787C147.534 57.7179 148.734 63.277 148.16 69.687C147.899 72.5233 147.665 73.4876 146.673 75.6432C145.029 79.2169 143.959 79.614 136.314 79.614C130.573 79.614 130.208 79.5572 129.947 78.5362C129.66 77.3449 129.582 57.6045 129.842 55.3354L129.999 54.0875H136.914C143.359 54.0875 143.881 54.1442 145.029 55.2787V55.2787Z" fill="#284D8A"/>
</svg>
