<svg width="50" height="50" viewBox="0 0 167 167" fill="none" xmlns="http://www.w3.org/2000/svg">
<g clip-path="url(#clip0_1_6)">
<path fill-rule="evenodd" clip-rule="evenodd" d="M0 0H167V167H0V0Z" fill="transparent"/>
<path fill-rule="evenodd" clip-rule="evenodd" d="M83.5 119.709C88.5331 115.118 92.5511 109.525 95.2962 103.289C98.0413 97.0541 99.4529 90.3138 99.4405 83.5008C99.4531 76.6879 98.0415 69.9475 95.2964 63.7121C92.5513 57.4767 88.5333 51.8838 83.5 47.2922C74.8934 39.4359 63.4762 34.6483 50.9475 34.6483C24.1668 34.6483 2.45532 56.52 2.45532 83.5008C2.45532 110.481 24.1668 132.353 50.9475 132.353C63.4762 132.353 74.8942 127.566 83.5 119.709Z" fill="#3A9BD9"/>
<path fill-rule="evenodd" clip-rule="evenodd" d="M116.053 34.6483C103.524 34.6483 92.1049 39.4359 83.5 47.2922C81.7452 48.8957 80.1089 50.6243 78.6041 52.4645H88.3925C89.7363 54.107 90.9721 55.835 92.0919 57.6377H74.9073C73.8728 59.3046 72.9392 61.0321 72.1115 62.8108H94.8834C95.6672 64.4943 96.3542 66.2212 96.941 67.9831H70.0581C69.4944 69.6801 69.0244 71.4068 68.6503 73.1554H98.3498C99.0769 76.5558 99.4428 80.0235 99.4414 83.5008C99.4414 88.9244 98.5612 94.1426 96.9419 99.0177H70.0581C70.6429 100.78 71.3285 102.507 72.1115 104.191H94.8834C94.0572 105.97 93.1247 107.697 92.0911 109.364H74.9073C76.026 111.167 77.2606 112.895 78.6032 114.537H88.3925C86.8896 116.378 85.2544 118.107 83.5 119.71C92.1049 127.567 103.524 132.354 116.053 132.354C142.832 132.354 164.545 110.482 164.545 83.5017C164.545 56.52 142.832 34.6483 116.053 34.6483Z" fill="#CC2131"/>
<path fill-rule="evenodd" clip-rule="evenodd" d="M158.088 110.733C158.088 109.861 158.788 109.154 159.655 109.154C160.519 109.154 161.22 109.861 161.22 110.733C161.22 111.603 160.519 112.31 159.655 112.31C159.238 112.308 158.839 112.142 158.545 111.846C158.251 111.55 158.086 111.15 158.088 110.733V110.733ZM159.654 111.93C160.311 111.93 160.843 111.396 160.843 110.732C160.843 110.068 160.311 109.532 159.654 109.532C158.995 109.532 158.463 110.068 158.463 110.732C158.463 111.396 158.996 111.93 159.654 111.93ZM159.443 111.424H159.121V110.036H159.703C159.824 110.036 159.947 110.04 160.053 110.107C160.109 110.147 160.154 110.199 160.184 110.259C160.215 110.319 160.23 110.386 160.229 110.454C160.229 110.61 160.138 110.757 159.991 110.813L160.245 111.423H159.888L159.678 110.875H159.443V111.424V110.639H159.621C159.685 110.639 159.758 110.643 159.816 110.611C159.842 110.593 159.863 110.569 159.877 110.541C159.891 110.514 159.898 110.483 159.897 110.451C159.896 110.424 159.889 110.396 159.875 110.372C159.862 110.348 159.843 110.327 159.819 110.311C159.764 110.277 159.674 110.286 159.613 110.286H159.444V111.424H159.443Z" fill="#CC2131"/>
<path fill-rule="evenodd" clip-rule="evenodd" d="M147.833 94.0889C147.833 93.2173 148.534 92.5104 149.399 92.5104C150.263 92.5104 150.964 93.2173 150.964 94.0889C150.964 94.9605 150.263 95.6657 149.399 95.6657C148.534 95.6657 147.833 94.9596 147.833 94.0889ZM149.398 95.2863C150.055 95.2863 150.587 94.75 150.587 94.088C150.587 93.4244 150.055 92.8881 149.398 92.8881C148.739 92.8881 148.208 93.4244 148.208 94.088C148.208 94.75 148.74 95.2863 149.398 95.2863ZM149.186 94.7803H148.865V93.3941H149.447C149.568 93.3941 149.692 93.3958 149.797 93.4651C149.852 93.5038 149.897 93.5555 149.928 93.6156C149.959 93.6757 149.974 93.7425 149.973 93.8099C149.973 93.9676 149.883 94.1132 149.735 94.1686L149.989 94.7794H149.633L149.422 94.231H149.187V94.7803V93.9953H149.365C149.431 93.9953 149.504 94.0005 149.56 93.9685C149.585 93.9505 149.606 93.9266 149.62 93.8988C149.634 93.8711 149.642 93.8403 149.641 93.8091C149.641 93.7809 149.633 93.7532 149.62 93.7285C149.606 93.7037 149.587 93.6826 149.563 93.667C149.508 93.6349 149.418 93.6419 149.359 93.6419H149.188V94.7803H149.186ZM44.8898 95.6657H38.8546L42.4414 76.6261L34.1831 95.6657H28.6798L27.674 76.7353L24.0759 95.6657H18.5978L23.2788 70.8985H32.6964L33.1946 86.2317L39.8345 70.8985H49.648L44.8898 95.6657V95.6657ZM112.338 95.4188C110.687 95.8754 109.396 96.0721 108.001 96.0721C104.914 96.0721 103.228 94.5117 103.228 91.6492C103.228 91.0826 103.29 90.4796 103.405 89.8419L103.772 87.8726L104.055 86.2785L106.852 70.8976H112.855L111.985 75.5232H115.065L114.237 80.42H111.145L109.554 88.8239C109.495 89.0984 109.46 89.3776 109.451 89.6582C109.451 90.6988 110.075 91.151 111.51 91.151C112.197 91.151 112.73 91.0886 113.138 90.963L112.338 95.4188ZM129.966 75.6887C129.46 75.4877 129.341 75.4877 129.282 75.4713C128.962 75.4002 128.792 75.3586 128.762 75.3534C128.562 75.3184 128.359 75.3016 128.155 75.3032C126.174 75.3032 124.745 76.1921 122.898 78.5738L123.431 75.5215H117.965L114.286 95.6649H120.326C122.486 83.3458 123.412 81.1885 126.309 81.1885C126.527 81.1885 126.779 81.2058 127.072 81.2396L127.777 81.3843L129.966 75.6887V75.6887ZM88.4133 81.8868C88.4133 84.4314 89.8368 86.1841 93.0632 87.501C95.5358 88.5129 95.9179 88.8092 95.9179 89.7241C95.9179 90.9777 94.828 91.5435 92.4134 91.5435C90.5905 91.5435 88.8967 91.2966 86.9413 90.7464L86.1035 95.3928L86.3738 95.4387L87.4923 95.6449C87.8528 95.7073 88.3838 95.7671 89.0882 95.8208C90.5403 95.9343 91.664 95.988 92.4558 95.988C98.8982 95.988 101.874 93.861 101.874 89.2666C101.874 86.502 100.63 84.881 97.5709 83.6603C95.0108 82.6406 94.7145 82.4144 94.7145 81.4744C94.7145 80.3888 95.7299 79.8309 97.7026 79.8309C98.9026 79.8309 100.538 79.9444 102.09 80.1333L102.96 75.4704C101.38 75.2538 98.9814 75.0762 97.5874 75.0762C90.7569 75.0771 88.3925 78.1718 88.4133 81.8868V81.8868ZM64.5099 95.6657H59.4944L59.6114 93.5777C58.0839 95.2308 56.0479 96.014 53.2807 96.014C50.0101 96.014 47.7653 93.7701 47.7653 90.5125C47.7653 85.6053 51.6649 82.7454 58.3672 82.7454C59.0543 82.7454 59.9267 82.8 60.826 82.9005C61.0132 82.2386 61.0643 81.9527 61.0643 81.5922C61.0643 80.2589 60.0116 79.7598 57.1933 79.7598C55.4701 79.7598 53.5224 79.9782 52.1778 80.3213L51.3418 80.5353L50.8003 80.6652L51.6372 76.1366C54.6461 75.3604 56.6319 75.0667 58.8628 75.0667C64.0498 75.0667 66.7911 77.1131 66.7911 80.9754C66.7911 81.9691 66.7001 82.7237 66.3007 84.9659L65.0392 92.1118L64.827 93.3941L64.6728 94.4181L64.5696 95.119L64.5099 95.6657V95.6657ZM60.1069 86.6918C59.6594 86.6361 59.2089 86.6083 58.758 86.6086C55.3375 86.6086 53.6047 87.6387 53.6047 89.673C53.6047 90.9266 54.4503 91.7272 55.7698 91.7272C58.2303 91.728 60.003 89.6704 60.1069 86.6918ZM84.3093 95.2308C82.2935 95.7779 80.2137 96.0526 78.125 96.0478C71.3777 96.0426 67.861 92.9479 67.861 87.0236C67.861 80.109 72.335 75.0181 78.4083 75.0181C83.377 75.0181 86.5497 77.8694 86.5497 82.3399C86.5497 83.824 86.3331 85.2709 85.809 87.3129H73.8087C73.772 87.5218 73.7526 87.7334 73.7507 87.9454C73.7507 90.2803 75.5398 91.4716 79.0451 91.4716C81.2007 91.4716 83.1492 91.0774 85.3125 90.1971L84.3093 95.2308ZM81.095 83.2453C81.1279 82.826 81.1452 82.4829 81.1452 82.2178C81.1452 80.582 80.0874 79.6221 78.2905 79.6221C76.3706 79.6221 74.9974 80.9095 74.4403 83.2332L81.095 83.2453ZM148.726 86.5332C147.823 93.2338 143.178 96.2055 137.003 96.2055C130.175 96.2055 127.418 92.033 127.418 86.9205C127.418 79.7815 132.088 74.9445 139.302 74.9445C145.563 74.9445 148.888 78.9221 148.888 84.0354C148.888 85.2796 148.886 85.3619 148.726 86.5332ZM142.511 83.9557C142.511 81.8487 141.662 79.8595 139.188 79.8595C136.108 79.8595 134.199 83.5269 134.199 86.7645C134.199 89.4954 135.507 91.3304 137.664 91.2914C138.973 91.2914 141.762 89.4962 142.314 86.3608C142.443 85.6296 142.511 84.8273 142.511 83.9557V83.9557Z" fill="white"/>
</g>
<defs>
<clipPath id="clip0_1_6">
<rect width="167" height="167" fill="white"/>
</clipPath>
</defs>
</svg>
